<?xml version="1.0" encoding="UTF-8"?>
<svg id="Layer_1" data-name="Layer 1" xmlns="http://www.w3.org/2000/svg" viewBox="0 0 651 651">
   <defs>
                <style>
                  .cls-1 {
                    fill: currentColor;
                  }
                </style>
              </defs>
    <path class="cls-1" d="M475.5,0H175.5C78.73,0,0,78.73,0,175.5v300c0,96.77,78.73,175.5,175.5,175.5h300c96.77,0,175.5-78.73,175.5-175.5V175.5C651,78.73,572.27,0,475.5,0ZM475.5,600h-24.5v-174h62c14.06,0,25.5-11.44,25.5-25.5v-100c0-14.06-11.44-25.5-25.5-25.5h-62v-24h62c14.06,0,25.5-11.44,25.5-25.5v-100c0-14.06-11.44-25.5-25.5-25.5h-112.5c-55.42,0-100.5,45.08-100.5,100.5v74.5h-49.5c-14.06,0-25.5,11.44-25.5,25.5v100c0,14.06,11.44,25.5,25.5,25.5h49.5v174h-124.5c-68.65,0-124.5-55.85-124.5-124.5V175.5c0-68.65,55.85-124.5,124.5-124.5h300c68.65,0,124.5,55.85,124.5,124.5v300c0,68.65-55.85,124.5-124.5,124.5ZM325.5,375h-49.5v-49h49.5c14.06,0,25.5-11.44,25.5-25.5v-100c0-27.29,22.21-49.5,49.5-49.5h87v49h-37c-27.85,0-50.5,22.65-50.5,50.5v50c0,14.06,11.44,25.5,25.5,25.5h62v49h-62c-14.06,0-25.5,11.44-25.5,25.5v199.5h-49v-199.5c0-14.06-11.44-25.5-25.5-25.5Z"/>
  </g>
</svg>