<?xml version="1.0" encoding="UTF-8"?>
<svg id="Layer_1" data-name="Layer 1" xmlns="http://www.w3.org/2000/svg" viewBox="0 0 651 651">
<defs>
                <style>
                  .cls-1 {
                    fill: currentColor;
                  }
                </style>
              </defs>
  <path class="cls-1" d="M475.5,0H175.5C78.73,0,0,78.73,0,175.5v300c0,96.77,78.73,175.5,175.5,175.5h300c96.77,0,175.5-78.73,175.5-175.5V175.5C651,78.73,572.27,0,475.5,0ZM600,475.5c0,68.65-55.85,124.5-124.5,124.5H175.5c-68.65,0-124.5-55.85-124.5-124.5V175.5c0-68.65,55.85-124.5,124.5-124.5h300c68.65,0,124.5,55.85,124.5,124.5v300Z"/>
  <circle class="cls-1" cx="501.76" cy="151.4" r="37.5"/>
  <path class="cls-1" d="M325.5,155.24c-94.03,0-170.26,76.23-170.26,170.26s76.23,170.26,170.26,170.26,170.26-76.23,170.26-170.26-76.23-170.26-170.26-170.26ZM325.5,444.76c-65.86,0-119.26-53.39-119.26-119.26s53.39-119.26,119.26-119.26,119.26,53.39,119.26,119.26-53.39,119.26-119.26,119.26Z"/>
</svg>