<?xml version="1.0" encoding="UTF-8"?>
<svg id="Layer_1" data-name="Layer 1" xmlns="http://www.w3.org/2000/svg" viewBox="0 0 651 651">
<defs>
                  <style>
                    .cls-1 {
                      fill: currentColor;
                    }
                  </style>
                </defs>
  <path class="cls-1" d="M475.5,0H175.5C78.73,0,0,78.73,0,175.5v300c0,96.77,78.73,175.5,175.5,175.5h300c96.77,0,175.5-78.73,175.5-175.5V175.5C651,78.73,572.27,0,475.5,0ZM600,475.5c0,68.65-55.85,124.5-124.5,124.5H175.5c-68.65,0-124.5-55.85-124.5-124.5V175.5c0-68.65,55.85-124.5,124.5-124.5h300c68.65,0,124.5,55.85,124.5,124.5v300Z"/>
  <g>
    <path class="cls-1" d="M211.52,173.75c0,20.45-16.18,37.19-36.41,38.08h-1.66c-20.93-.11-38.05-17.21-38.17-38.08,0-21.02,17.1-38.12,38.12-38.12s38.08,17.11,38.12,38.12Z"/>
    <rect class="cls-1" x="141.85" y="268.33" width="63" height="247.04"/>
    <path class="cls-1" d="M336.52,304.84c14.41-24.6,60.82-44.17,89.28-43.14h.36c35.45.01,59.27,10.46,72.83,31.96,11.57,18.34,16.72,44.63,16.72,85.25l-.04,136.46h-62.91v-119.86c0-14.66,0-34.74-6.3-50.7-7.78-19.71-23.97-30.13-46.83-30.13s-40.18,8.88-49.84,26.4c-6.89,12.48-9.95,28.56-9.95,52.14v122.15h-62.91v-247.04h59.59v36.51"/>
  </g>
</svg>